# xmcd
#
# Track frame offsets: 
#        150
#        13629
#        30098
#        44373
#        58092
#        73133
#        85543
#        100671
#        116194
#        132935
#        149866
#        165093
#        183410
#        198982
#        215906
#        234289
#        248869
#        265430
#        278595
#        298473
#
# Disc length: 4166 seconds
#
# Revision: 0
# Processed by: cddbd v1.5.2PL0 Copyright (c) Steve Scherf et al.
# Submitted via: ExactAudioCopy v1.0b4
#
DISCID=2b104414
DTITLE=Various Artist - Folk Džumbus 2
DYEAR=1900
DGENRE=Country
TTITLE0=Vesna Zmijanac - Da li ti je večeras po volji
TTITLE1=Ceca Ražnjatović - Fatalna ljubav
TTITLE2=Lepa Brena - Hajde da se volimo
TTITLE3=Ana Bekuta - Zlatiborske zore
TTITLE4=Nataša Djordjević - Zumbuli
TTITLE5=Dragana Mirković - Kletva
TTITLE6=Jami - Čokolada
TTITLE7=Viki Miljković - Nikom nije lepše nego nama
TTITLE8=Lola - Pilula za snove
TTITLE9=Mira Škorić - Bilo bi njoj
TTITLE10=Dara Bubamara - NS-BG
TTITLE11=Sneki - Ja nisam prva ni poslednja
TTITLE12=Ceca Ražnjatović - Monotonija
TTITLE13=Zorica Markovic - Lijte kiše
TTITLE14=Mina - Ke se zadnji smeje
TTITLE15=Ana Bekuta - Opet imam razloga da živim
TTITLE16=Viki Miljković - Sto posto
TTITLE17=Jami - Hajde da oslabimo zajedno
TTITLE18=Mira Škorić - I službi ljubavi
TTITLE19=Ceca Ražnjatović - Ne računaj na mene
EXTD=
EXTT0=
EXTT1=
EXTT2=
EXTT3=
EXTT4=
EXTT5=
EXTT6=
EXTT7=
EXTT8=
EXTT9=
EXTT10=
EXTT11=
EXTT12=
EXTT13=
EXTT14=
EXTT15=
EXTT16=
EXTT17=
EXTT18=
EXTT19=
PLAYORDER=
